<svg xmlns="http://www.w3.org/2000/svg" viewBox="0 0 360.17 177.1"><defs><style>.cls-1,.cls-3{fill:#95c11f;}.cls-1{fill-rule:evenodd;}.cls-2{fill:#575756;}</style></defs><title>logo_asesor_energetico</title><g id="Capa_2" data-name="Capa 2"><g id="Layer_1" data-name="Layer 1"><path class="cls-1" d="M53.4,117.83A28,28,0,0,1,30.36,74h0l23-33.33L76.44,74h0a28,28,0,0,1-23,43.88ZM53.4,0,0,77.26V136.4H106.81V77.26l-13.12-19L75,31.21,53.4,0Z"/><path class="cls-1" d="M88,33.08A28.29,28.29,0,0,1,114,2.15,28.28,28.28,0,0,1,88,33.08Z"/><path class="cls-2" d="M157.29,78h-17.1l-3.58,10.28h-8l16.68-44.15h6.88l16.71,44.15h-8Zm-14.95-6.19h12.8l-6.4-18.31Z"/><path class="cls-2" d="M197,76.89a5.32,5.32,0,0,0-2.05-4.49q-2-1.58-7.38-3.19a35.7,35.7,0,0,1-8.49-3.57q-6-3.8-6-9.89A10.74,10.74,0,0,1,177.38,47q4.37-3.47,11.3-3.46a19.14,19.14,0,0,1,8.22,1.7A13.54,13.54,0,0,1,202.57,50a12.48,12.48,0,0,1,2.06,7H197a6.9,6.9,0,0,0-2.17-5.41,9,9,0,0,0-6.2-2,9.37,9.37,0,0,0-5.84,1.61,5.37,5.37,0,0,0-2.08,4.49A4.84,4.84,0,0,0,183,59.77a25.77,25.77,0,0,0,7.4,3.15,34.41,34.41,0,0,1,8.28,3.49,13.14,13.14,0,0,1,4.58,4.49,11.66,11.66,0,0,1,1.45,5.93,10.5,10.5,0,0,1-4.23,8.77Q196.2,88.87,189,88.86a21.63,21.63,0,0,1-8.81-1.77,14.66,14.66,0,0,1-6.24-4.9,12.17,12.17,0,0,1-2.23-7.27h7.67a7.15,7.15,0,0,0,2.49,5.82c1.65,1.37,4,2.06,7.12,2.06q4,0,6-1.62A5.22,5.22,0,0,0,197,76.89Z"/><path class="cls-2" d="M237.2,68.55H219.07V82.13h21.19v6.13H211.39V44.11h28.66v6.18h-21V62.48H237.2Z"/><path class="cls-2" d="M269.59,76.89a5.35,5.35,0,0,0-2-4.49q-2.06-1.58-7.38-3.19a35.7,35.7,0,0,1-8.49-3.57q-6-3.8-6-9.89A10.74,10.74,0,0,1,250,47q4.35-3.47,11.3-3.46a19.14,19.14,0,0,1,8.22,1.7A13.54,13.54,0,0,1,275.17,50a12.48,12.48,0,0,1,2.06,7h-7.64a6.93,6.93,0,0,0-2.17-5.41,9,9,0,0,0-6.2-2,9.35,9.35,0,0,0-5.84,1.61,5.34,5.34,0,0,0-2.08,4.49,4.84,4.84,0,0,0,2.25,4.05,25.77,25.77,0,0,0,7.4,3.15,34.15,34.15,0,0,1,8.27,3.49,13.06,13.06,0,0,1,4.58,4.49,11.66,11.66,0,0,1,1.46,5.93A10.5,10.5,0,0,1,273,85.6q-4.23,3.27-11.48,3.26a21.63,21.63,0,0,1-8.81-1.77,14.75,14.75,0,0,1-6.25-4.9,12.23,12.23,0,0,1-2.22-7.27h7.67a7.17,7.17,0,0,0,2.48,5.82q2.49,2.06,7.13,2.06,4,0,6-1.62A5.24,5.24,0,0,0,269.59,76.89Z"/><path class="cls-2" d="M319.23,67.33A27,27,0,0,1,317,78.72a16.9,16.9,0,0,1-6.41,7.52,18.82,18.82,0,0,1-19.16,0,17.21,17.21,0,0,1-6.49-7.47,26.22,26.22,0,0,1-2.32-11.19V65.09a26.76,26.76,0,0,1,2.29-11.4,17.14,17.14,0,0,1,6.45-7.57,18.88,18.88,0,0,1,19.14,0,17,17,0,0,1,6.44,7.46,26.76,26.76,0,0,1,2.31,11.33ZM311.56,65q0-7.34-2.78-11.25a9.8,9.8,0,0,0-15.65,0q-2.81,3.9-2.86,11v2.54q0,7.29,2.83,11.25a9.14,9.14,0,0,0,7.87,4,9,9,0,0,0,7.84-3.89q2.74-3.87,2.75-11.34Z"/><path class="cls-2" d="M343.09,71.28h-8.55v17h-7.67V44.11H342.4q7.64,0,11.79,3.43t4.16,9.92a12.47,12.47,0,0,1-2.14,7.42,13.63,13.63,0,0,1-6,4.6l9.92,18.38v.4H352Zm-8.55-6.19h7.89a8.73,8.73,0,0,0,6.06-2,6.79,6.79,0,0,0,2.18-5.35,7.3,7.3,0,0,0-2-5.49c-1.35-1.29-3.35-2-6-2h-8.1Z"/><path class="cls-3" d="M145,122.94H133.25v9.57h13.6v2.92H129.69v-27h17v2.92H133.25V120H145Z"/><path class="cls-3" d="M173.15,135.43h-3.58L156,114.61v20.82h-3.59v-27H156l13.63,20.91V108.41h3.55Z"/><path class="cls-3" d="M195.85,122.94H184.14v9.57h13.6v2.92H180.58v-27h17v2.92H184.14V120h11.71Z"/><path class="cls-3" d="M213.18,124.5h-6.34v10.93h-3.58v-27h8.94c3,0,5.38.7,7,2.08a7.48,7.48,0,0,1,2.46,6.05,7.28,7.28,0,0,1-1.36,4.4,8.17,8.17,0,0,1-3.8,2.8l6.35,11.47v.22h-3.82Zm-6.34-2.91h5.47a6.15,6.15,0,0,0,4.22-1.38,4.64,4.64,0,0,0,1.57-3.68,4.92,4.92,0,0,0-1.49-3.85,6.35,6.35,0,0,0-4.32-1.35h-5.45Z"/><path class="cls-3" d="M247.72,131.88a8.08,8.08,0,0,1-3.83,2.94,15.47,15.47,0,0,1-5.72,1,11.14,11.14,0,0,1-5.87-1.55,10.37,10.37,0,0,1-4-4.41,15.32,15.32,0,0,1-1.44-6.62v-2.36q0-6.1,2.85-9.46a9.93,9.93,0,0,1,8-3.36,10.26,10.26,0,0,1,6.81,2.16,9.4,9.4,0,0,1,3.15,6.13h-3.56c-.67-3.58-2.8-5.38-6.38-5.38a6.3,6.3,0,0,0-5.43,2.52q-1.84,2.52-1.86,7.29V123a11.55,11.55,0,0,0,2.07,7.23,6.75,6.75,0,0,0,5.63,2.69,12.24,12.24,0,0,0,3.5-.45,5.36,5.36,0,0,0,2.49-1.5v-6h-6.25V122h9.79Z"/><path class="cls-3" d="M270,122.94H258.32v9.57h13.6v2.92H254.76v-27h17v2.92H258.32V120H270Zm-5.23-22H269l-5,5.46h-2.76Z"/><path class="cls-3" d="M296.5,111.33h-8.68v24.1h-3.55v-24.1h-8.66v-2.92H296.5Z"/><path class="cls-3" d="M305.43,135.43h-3.56v-27h3.56Z"/><path class="cls-3" d="M332.92,126.86a10,10,0,0,1-3.17,6.61,10.36,10.36,0,0,1-7.07,2.33,9.53,9.53,0,0,1-7.68-3.43q-2.88-3.44-2.88-9.19v-2.6a15.49,15.49,0,0,1,1.34-6.62,10.08,10.08,0,0,1,3.82-4.39A10.6,10.6,0,0,1,323,108a9.76,9.76,0,0,1,6.9,2.4,10.12,10.12,0,0,1,3,6.66h-3.58a7.7,7.7,0,0,0-2-4.69A6.07,6.07,0,0,0,323,111a6.37,6.37,0,0,0-5.35,2.53q-1.93,2.52-1.94,7.19v2.62a11.9,11.9,0,0,0,1.84,7,5.93,5.93,0,0,0,5.14,2.6,6.84,6.84,0,0,0,4.55-1.35q1.59-1.35,2.11-4.68Z"/><path class="cls-3" d="M359.66,122.79a16.7,16.7,0,0,1-1.33,6.93,10.11,10.11,0,0,1-3.79,4.52,10.4,10.4,0,0,1-5.71,1.56,10.11,10.11,0,0,1-9.5-6,16.29,16.29,0,0,1-1.4-6.73v-2a16.56,16.56,0,0,1,1.36-6.88,10,10,0,0,1,9.5-6.16,10.43,10.43,0,0,1,5.72,1.57,10,10,0,0,1,3.82,4.54,16.83,16.83,0,0,1,1.33,6.93Zm-3.54-1.74c0-3.21-.65-5.66-1.93-7.38a6.87,6.87,0,0,0-10.72,0,11.92,11.92,0,0,0-2,7.14v2a12.08,12.08,0,0,0,2,7.32,6.86,6.86,0,0,0,10.73.15q1.89-2.52,1.95-7.21Z"/><path class="cls-2" d="M16.19,167.46l2.94-11.71h2.62l-4.46,15.32H15.17l-3.73-11.61L7.82,171.07H5.7L1.25,155.75h2.6l3,11.47,3.57-11.47h2.11Z"/><path class="cls-2" d="M38.33,167.46l2.94-11.71h2.62l-4.46,15.32H37.31l-3.72-11.61L30,171.07H27.84l-4.45-15.32H26l3,11.47,3.57-11.47h2.11Z"/><path class="cls-2" d="M60.47,167.46l2.94-11.71H66l-4.46,15.32H59.45l-3.72-11.61L52.1,171.07H50l-4.45-15.32h2.61l3,11.47,3.57-11.47h2.11Z"/><path class="cls-2" d="M67.35,169.7a1.65,1.65,0,0,1,.4-1.14,1.54,1.54,0,0,1,1.21-.45,1.56,1.56,0,0,1,1.22.45,1.62,1.62,0,0,1,.42,1.14,1.53,1.53,0,0,1-.42,1.09,1.6,1.6,0,0,1-1.22.44,1.45,1.45,0,0,1-1.61-1.53Z"/><path class="cls-2" d="M84.73,171.07a5.36,5.36,0,0,1-.37-1.61A5.86,5.86,0,0,1,80,171.35a5.39,5.39,0,0,1-3.72-1.28,4.13,4.13,0,0,1-1.45-3.25,4.36,4.36,0,0,1,1.82-3.72,8.59,8.59,0,0,1,5.12-1.32h2.55v-1.2a3,3,0,0,0-.82-2.19,3.33,3.33,0,0,0-2.43-.81,3.85,3.85,0,0,0-2.35.7,2.09,2.09,0,0,0-.94,1.72H75.14a3.57,3.57,0,0,1,.82-2.22,5.48,5.48,0,0,1,2.2-1.69,7.39,7.39,0,0,1,3.07-.63,6.07,6.07,0,0,1,4.15,1.33,4.78,4.78,0,0,1,1.56,3.64v7.06a8.58,8.58,0,0,0,.54,3.35v.23Zm-4.35-2a4.67,4.67,0,0,0,2.34-.63,3.92,3.92,0,0,0,1.6-1.66v-3.14H82.26c-3.21,0-4.81.93-4.81,2.81a2.38,2.38,0,0,0,.82,1.93A3.17,3.17,0,0,0,80.38,169.07Z"/><path class="cls-2" d="M100.31,167a1.9,1.9,0,0,0-.8-1.64,7.6,7.6,0,0,0-2.79-1,12.78,12.78,0,0,1-3.15-1,4.38,4.38,0,0,1-1.73-1.41,3.35,3.35,0,0,1-.56-2,4,4,0,0,1,1.59-3.18,6.21,6.21,0,0,1,4.07-1.31,6.39,6.39,0,0,1,4.23,1.35,4.27,4.27,0,0,1,1.62,3.44h-2.63a2.36,2.36,0,0,0-.92-1.85,3.41,3.41,0,0,0-2.3-.78,3.58,3.58,0,0,0-2.23.62,2,2,0,0,0-.81,1.63,1.59,1.59,0,0,0,.75,1.43,9.14,9.14,0,0,0,2.71.92,13.73,13.73,0,0,1,3.18,1.05,4.57,4.57,0,0,1,1.8,1.46,3.55,3.55,0,0,1,.59,2.09,3.92,3.92,0,0,1-1.64,3.29A6.88,6.88,0,0,1,97,171.35a7.62,7.62,0,0,1-3.26-.65,5.34,5.34,0,0,1-2.22-1.82,4.41,4.41,0,0,1-.8-2.53h2.62a2.71,2.71,0,0,0,1.06,2.09,4,4,0,0,0,2.6.77,4.22,4.22,0,0,0,2.38-.6A1.84,1.84,0,0,0,100.31,167Z"/><path class="cls-2" d="M113.05,171.35a6.7,6.7,0,0,1-5.07-2,7.62,7.62,0,0,1-2-5.48v-.48a9.21,9.21,0,0,1,.87-4.07,6.78,6.78,0,0,1,2.43-2.8,6.12,6.12,0,0,1,3.39-1,5.75,5.75,0,0,1,4.65,2,8.56,8.56,0,0,1,1.66,5.64v1.09H108.65a5.43,5.43,0,0,0,1.32,3.66,4.17,4.17,0,0,0,3.22,1.39,4.52,4.52,0,0,0,2.35-.56,6,6,0,0,0,1.69-1.5l1.6,1.24A6.43,6.43,0,0,1,113.05,171.35Zm-.33-13.73a3.5,3.5,0,0,0-2.66,1.15,5.67,5.67,0,0,0-1.33,3.24h7.68v-.2a5.07,5.07,0,0,0-1.08-3.1A3.29,3.29,0,0,0,112.72,157.62Z"/><path class="cls-2" d="M131.33,167a1.93,1.93,0,0,0-.8-1.64,7.76,7.76,0,0,0-2.79-1,12.88,12.88,0,0,1-3.16-1,4.38,4.38,0,0,1-1.73-1.41,3.42,3.42,0,0,1-.56-2,4,4,0,0,1,1.59-3.18,6.24,6.24,0,0,1,4.08-1.31,6.38,6.38,0,0,1,4.22,1.35,4.27,4.27,0,0,1,1.62,3.44h-2.63a2.35,2.35,0,0,0-.91-1.85,3.43,3.43,0,0,0-2.3-.78,3.61,3.61,0,0,0-2.24.62,2,2,0,0,0-.81,1.63,1.59,1.59,0,0,0,.75,1.43,9.25,9.25,0,0,0,2.71.92,13.73,13.73,0,0,1,3.18,1.05,4.6,4.6,0,0,1,1.81,1.46,3.62,3.62,0,0,1,.58,2.09,3.89,3.89,0,0,1-1.64,3.29,6.84,6.84,0,0,1-4.26,1.24,7.65,7.65,0,0,1-3.26-.65,5.24,5.24,0,0,1-2.21-1.82,4.34,4.34,0,0,1-.8-2.53h2.62a2.7,2.7,0,0,0,1,2.09,4.06,4.06,0,0,0,2.6.77,4.25,4.25,0,0,0,2.39-.6A1.84,1.84,0,0,0,131.33,167Z"/><path class="cls-2" d="M137,163.27a9.06,9.06,0,0,1,.89-4.05,6.61,6.61,0,0,1,2.46-2.78,6.7,6.7,0,0,1,3.6-1,6.49,6.49,0,0,1,5.07,2.17,8.39,8.39,0,0,1,1.93,5.76v.19a9.12,9.12,0,0,1-.86,4,6.42,6.42,0,0,1-2.45,2.77,6.78,6.78,0,0,1-3.66,1,6.47,6.47,0,0,1-5.05-2.16,8.35,8.35,0,0,1-1.93-5.74Zm2.64.31a6.54,6.54,0,0,0,1.18,4.09,4,4,0,0,0,6.33,0,7.11,7.11,0,0,0,1.18-4.38,6.54,6.54,0,0,0-1.2-4.09,4,4,0,0,0-6.31,0A7.14,7.14,0,0,0,139.65,163.58Z"/><path class="cls-2" d="M162,158.1a7.5,7.5,0,0,0-1.29-.1,3.46,3.46,0,0,0-3.5,2.19v10.88h-2.62V155.75h2.55l0,1.77a4.09,4.09,0,0,1,3.66-2.06,2.72,2.72,0,0,1,1.16.2Z"/><path class="cls-2" d="M170.84,171.35a6.73,6.73,0,0,1-5.07-2,7.62,7.62,0,0,1-2-5.48v-.48a9.21,9.21,0,0,1,.87-4.07,6.74,6.74,0,0,1,2.44-2.8,6.07,6.07,0,0,1,3.39-1,5.73,5.73,0,0,1,4.64,2,8.51,8.51,0,0,1,1.66,5.64v1.09H166.44a5.48,5.48,0,0,0,1.32,3.66,4.17,4.17,0,0,0,3.23,1.39,4.51,4.51,0,0,0,2.34-.56,5.88,5.88,0,0,0,1.69-1.5l1.6,1.24A6.42,6.42,0,0,1,170.84,171.35Zm-.32-13.73a3.47,3.47,0,0,0-2.66,1.15,5.61,5.61,0,0,0-1.34,3.24h7.68v-.2a5.07,5.07,0,0,0-1.08-3.1A3.28,3.28,0,0,0,170.52,157.62Z"/><path class="cls-2" d="M182.67,155.75l.09,1.92a5.59,5.59,0,0,1,4.59-2.21c3.23,0,4.87,1.83,4.9,5.48v10.13h-2.62V160.93a3.52,3.52,0,0,0-.76-2.45,3,3,0,0,0-2.32-.79,3.78,3.78,0,0,0-2.23.68,4.48,4.48,0,0,0-1.5,1.78v10.92H180.2V155.75Z"/><path class="cls-2" d="M202.9,171.35a6.73,6.73,0,0,1-5.07-2,7.62,7.62,0,0,1-2-5.48v-.48a9.21,9.21,0,0,1,.87-4.07,6.74,6.74,0,0,1,2.44-2.8,6.07,6.07,0,0,1,3.39-1,5.73,5.73,0,0,1,4.64,2,8.51,8.51,0,0,1,1.66,5.64v1.09H198.5a5.48,5.48,0,0,0,1.32,3.66,4.17,4.17,0,0,0,3.23,1.39,4.57,4.57,0,0,0,2.35-.56,6,6,0,0,0,1.68-1.5l1.6,1.24A6.42,6.42,0,0,1,202.9,171.35Zm-.32-13.73a3.47,3.47,0,0,0-2.66,1.15,5.61,5.61,0,0,0-1.34,3.24h7.68v-.2a5,5,0,0,0-1.08-3.1A3.28,3.28,0,0,0,202.58,157.62Z"/><path class="cls-2" d="M219.66,158.1a7.35,7.35,0,0,0-1.29-.1,3.45,3.45,0,0,0-3.49,2.19v10.88h-2.62V155.75h2.55l0,1.77a4.09,4.09,0,0,1,3.65-2.06,2.69,2.69,0,0,1,1.16.2Z"/><path class="cls-2" d="M221.53,163.28a9,9,0,0,1,1.65-5.7,5.71,5.71,0,0,1,8.77-.13l.13-1.7h2.39V170.7a6.26,6.26,0,0,1-1.76,4.69A6.53,6.53,0,0,1,228,177.1a7.7,7.7,0,0,1-3.24-.71,5.52,5.52,0,0,1-2.42-1.94l1.36-1.57a5.1,5.1,0,0,0,4.12,2.08,4.06,4.06,0,0,0,3-1.07,4.13,4.13,0,0,0,1.06-3v-1.32a5.35,5.35,0,0,1-4.29,1.81,5.24,5.24,0,0,1-4.35-2.16A9.49,9.49,0,0,1,221.53,163.28Zm2.63.3a6.85,6.85,0,0,0,1.06,4.07,3.45,3.45,0,0,0,3,1.48,3.82,3.82,0,0,0,3.63-2.25v-7a3.87,3.87,0,0,0-3.61-2.19,3.46,3.46,0,0,0-3,1.48A7.49,7.49,0,0,0,224.16,163.58Z"/><path class="cls-2" d="M245.12,171.35a6.69,6.69,0,0,1-5.06-2,7.58,7.58,0,0,1-2-5.48v-.48a9.21,9.21,0,0,1,.87-4.07,6.74,6.74,0,0,1,2.44-2.8,6.07,6.07,0,0,1,3.39-1,5.73,5.73,0,0,1,4.64,2,8.51,8.51,0,0,1,1.66,5.64v1.09H240.72a5.48,5.48,0,0,0,1.32,3.66,4.17,4.17,0,0,0,3.23,1.39,4.57,4.57,0,0,0,2.35-.56,6,6,0,0,0,1.68-1.5l1.6,1.24A6.42,6.42,0,0,1,245.12,171.35Zm-.32-13.73a3.47,3.47,0,0,0-2.66,1.15,5.6,5.6,0,0,0-1.33,3.24h7.67v-.2a5,5,0,0,0-1.08-3.1A3.28,3.28,0,0,0,244.8,157.62Z"/><path class="cls-2" d="M258,152v3.71h2.86v2H258v9.52a2.1,2.1,0,0,0,.39,1.38,1.58,1.58,0,0,0,1.3.46A6.49,6.49,0,0,0,261,169v2.11a7.55,7.55,0,0,1-2,.28,3.27,3.27,0,0,1-2.65-1.06,4.59,4.59,0,0,1-.89-3v-9.5h-2.79v-2h2.79V152Z"/><path class="cls-2" d="M264.31,151.68a1.55,1.55,0,0,1,.39-1.07,1.75,1.75,0,0,1,2.32,0,1.55,1.55,0,0,1,.39,1.07,1.4,1.4,0,0,1-1.55,1.49,1.51,1.51,0,0,1-1.16-.42A1.53,1.53,0,0,1,264.31,151.68Zm2.83,19.39h-2.61V155.75h2.61Z"/><path class="cls-2" d="M277.83,169.21a3.77,3.77,0,0,0,2.45-.85,3,3,0,0,0,1.16-2.12h2.48a4.78,4.78,0,0,1-.91,2.51,5.9,5.9,0,0,1-2.23,1.89,6.8,6.8,0,0,1-7.93-1.38,8.31,8.31,0,0,1-1.85-5.71v-.44a9.2,9.2,0,0,1,.83-4,6.2,6.2,0,0,1,2.35-2.7,6.74,6.74,0,0,1,3.63-1A6.16,6.16,0,0,1,282.1,157a5.52,5.52,0,0,1,1.82,4h-2.48a3.62,3.62,0,0,0-1.13-2.45,3.51,3.51,0,0,0-2.5-.95,3.67,3.67,0,0,0-3.09,1.43,6.78,6.78,0,0,0-1.1,4.16v.5a6.64,6.64,0,0,0,1.09,4.07A3.68,3.68,0,0,0,277.83,169.21Z"/><path class="cls-2" d="M286.52,163.27a9.05,9.05,0,0,1,.88-4.05,6.56,6.56,0,0,1,2.47-2.78,6.7,6.7,0,0,1,3.6-1,6.47,6.47,0,0,1,5.06,2.17,8.35,8.35,0,0,1,1.94,5.76v.19a9.12,9.12,0,0,1-.86,4,6.48,6.48,0,0,1-2.45,2.77,6.78,6.78,0,0,1-3.66,1,6.46,6.46,0,0,1-5.05-2.16,8.31,8.31,0,0,1-1.93-5.74Zm2.63.31a6.6,6.6,0,0,0,1.18,4.09,4,4,0,0,0,6.34,0,7.17,7.17,0,0,0,1.18-4.38,6.54,6.54,0,0,0-1.2-4.09,3.81,3.81,0,0,0-3.18-1.56,3.76,3.76,0,0,0-3.13,1.54A7.13,7.13,0,0,0,289.15,163.58Z"/><path class="cls-2" d="M304.16,169.7a1.65,1.65,0,0,1,.4-1.14,1.54,1.54,0,0,1,1.21-.45,1.56,1.56,0,0,1,1.22.45,1.62,1.62,0,0,1,.42,1.14,1.53,1.53,0,0,1-.42,1.09,1.6,1.6,0,0,1-1.22.44,1.45,1.45,0,0,1-1.61-1.53Z"/><path class="cls-2" d="M312.09,151.68a1.55,1.55,0,0,1,.39-1.07,1.75,1.75,0,0,1,2.32,0,1.55,1.55,0,0,1,.39,1.07,1.4,1.4,0,0,1-1.55,1.49,1.51,1.51,0,0,1-1.16-.42A1.53,1.53,0,0,1,312.09,151.68Zm2.83,19.39h-2.61V155.75h2.61Z"/><path class="cls-2" d="M321.94,155.75l.09,1.92a5.59,5.59,0,0,1,4.59-2.21c3.23,0,4.87,1.83,4.9,5.48v10.13H328.9V160.93a3.57,3.57,0,0,0-.76-2.45,3,3,0,0,0-2.32-.79,3.78,3.78,0,0,0-2.23.68,4.59,4.59,0,0,0-1.51,1.78v10.92h-2.62V155.75Z"/><path class="cls-2" d="M337.1,171.07v-13.3h-2.42v-2h2.42v-1.57a5.19,5.19,0,0,1,1.32-3.81,5,5,0,0,1,3.72-1.35,6.85,6.85,0,0,1,1.8.24l-.14,2.11a8,8,0,0,0-1.42-.12,2.52,2.52,0,0,0-2,.74,3,3,0,0,0-.7,2.14v1.62H343v2h-3.27v13.3Z"/><path class="cls-2" d="M345.54,163.27a9.05,9.05,0,0,1,.88-4.05,6.61,6.61,0,0,1,2.46-2.78,6.76,6.76,0,0,1,3.61-1,6.48,6.48,0,0,1,5.06,2.17,8.34,8.34,0,0,1,1.93,5.76v.19a9.11,9.11,0,0,1-.85,4,6.55,6.55,0,0,1-2.45,2.77,6.83,6.83,0,0,1-3.66,1,6.46,6.46,0,0,1-5-2.16,8.31,8.31,0,0,1-1.93-5.74Zm2.63.31a6.54,6.54,0,0,0,1.18,4.09,4,4,0,0,0,6.34,0,7.17,7.17,0,0,0,1.17-4.38,6.6,6.6,0,0,0-1.19-4.09,3.81,3.81,0,0,0-3.18-1.56,3.74,3.74,0,0,0-3.13,1.54A7.07,7.07,0,0,0,348.17,163.58Z"/></g></g></svg>