<svg xmlns="http://www.w3.org/2000/svg" viewBox="0 0 980.36 574.24"><defs><style>.cls-1{fill:#556798;}</style></defs><title>moncada_1</title><g id="Capa_2" data-name="Capa 2"><g id="Capa_1-2" data-name="Capa 1"><path class="cls-1" d="M231.67.54s143.24-19,140,169c-3,174,46,220,46,220s-138,6-129-169C297.59,47,231.67.54,231.67.54Z"/><path class="cls-1" d="M358.36.54s143.24-19,140,169c-3,174,46,220,46,220s-138,6-129-169C424.28,47,358.36.54,358.36.54Z"/><path class="cls-1" d="M489.36.54s143.24-19,140,169c-3,174,46,220,46,220s-138,6-129-169C555.28,47,489.36.54,489.36.54Z"/><path d="M219.4,574.24a67.54,67.54,0,0,1-25.28-4.53,52.63,52.63,0,0,1-19.28-13.05,58.06,58.06,0,0,1-12.2-20.58,81.27,81.27,0,0,1-4.27-27.28,83.18,83.18,0,0,1,4.17-27.28A56,56,0,0,1,174.65,461a53.21,53.21,0,0,1,19.27-13,68.16,68.16,0,0,1,25.48-4.53A69.3,69.3,0,0,1,244.87,448a52.65,52.65,0,0,1,19.38,13,56.4,56.4,0,0,1,12.2,20.57,90.1,90.1,0,0,1-.09,54.47,58.1,58.1,0,0,1-12.21,20.67,52.72,52.72,0,0,1-19.28,13.05A68.07,68.07,0,0,1,219.4,574.24Zm0-10.15q15.49,0,26.35-6.53a41.9,41.9,0,0,0,16.56-18.85Q268,526.38,268,508.8T262.31,479a42.16,42.16,0,0,0-16.47-18.76q-10.74-6.53-26.44-6.53-15.32,0-26.15,6.53a41.87,41.87,0,0,0-16.57,18.85Q171,491.41,171,508.8t5.71,29.73a42.41,42.41,0,0,0,16.57,18.94Q204.09,564.09,219.4,564.09Z"/><path d="M0,572.79V445H11.71l55,92.54h-11L111,445h10.55V572.79H111.12V458.41h4.4L65,546H56.94L5.88,458.23h4.41V572.79Z"/><path d="M581.21,572.79,640.68,445h10.66l59.28,127.79h-12.4L681.36,536l6.4,2.72H603.87l6.59-2.72-16.66,36.8Zm64.51-114-32.94,72.5-4.45-2.18h75l-4.07,2.18-33.12-72.5Z"/><path d="M729.8,572.79V445h44q21.9,0,37,7.25a51,51,0,0,1,23.05,21.48q7.95,14.24,7.94,35.07t-7.94,35.08a51.54,51.54,0,0,1-23.05,21.57q-15.12,7.34-37,7.34ZM741.62,563h31.19q28.08,0,42.13-13.6t14-40.6q0-27-14-40.51t-42.13-13.5H741.62Z"/><path d="M851,572.79,910.43,445h10.65l59.28,127.79H968L951.11,536l6.39,2.72H873.62L880.2,536l-16.66,36.8Zm64.51-114-32.93,72.5-4.46-2.18h75L949,531.28l-33.13-72.5Z"/><path d="M515.72,574.24q-19.56,0-33.51-7.89a52.69,52.69,0,0,1-21.41-22.56q-7.46-14.68-7.46-35t7.46-34.89a52.83,52.83,0,0,1,21.41-22.48q13.95-7.87,33.51-7.88a76.69,76.69,0,0,1,26.16,4.26c7.87,2.84,19.79,13.73,25.79,31.73l-11,4c-3.13-9.94-8-21-18.67-25.94-6.38-3-14-3.72-22.08-3.72q-24,0-36.91,14.41T466.13,508.8q0,26.1,12.88,40.6t36.91,14.51a50.62,50.62,0,0,0,23.75-6.37c10-6,14.87-16.79,17-25l10,3c-1,9-13,26-24,32A57.17,57.17,0,0,1,515.72,574.24Z"/><path d="M311.77,572.79V445h9.49l90.86,114.56h-4.46V445h11V572.79h-9.3L318.55,458.23h4.26V572.79Z"/></g></g></svg>