<svg xmlns="http://www.w3.org/2000/svg" xmlns:xlink="http://www.w3.org/1999/xlink" viewBox="0 0 614.91 446.91"><defs><style>.cls-1,.cls-7{fill:none;}.cls-2{fill:#717fbe;}.cls-3{fill:#fff;}.cls-4{fill:#003592;}.cls-5{fill:#231f20;}.cls-6{clip-path:url(#clip-path);}.cls-7{stroke:#fff;stroke-linecap:round;stroke-linejoin:round;stroke-width:16px;}</style><clipPath id="clip-path"><rect class="cls-1" x="407.73" y="275.04" width="21.88" height="29.94"/></clipPath></defs><g id="Capa_2" data-name="Capa 2"><g id="Capa_1-2" data-name="Capa 1"><polygon class="cls-2" points="224.34 337.22 235.78 337.22 250.49 374.54 265.41 337.22 276.84 337.22 255.78 389.76 245.04 389.76 224.34 337.22"/><polygon class="cls-2" points="279.28 337.22 311.2 337.22 311.2 347.01 290.34 347.01 290.34 356.51 311.2 356.51 311.2 366.11 290.34 366.11 290.34 379.93 311.2 379.93 311.2 389.76 279.28 389.76 279.28 337.22"/><polygon class="cls-2" points="315.09 337.22 325.77 337.22 350.79 371.79 350.79 337.22 361.9 337.22 361.9 389.76 351.2 389.76 326.22 355.29 326.22 389.76 315.09 389.76 315.09 337.22"/><polygon class="cls-2" points="366.24 337.22 398.54 337.22 398.54 347.09 387.89 347.09 387.89 389.76 376.62 389.76 376.62 347.09 366.24 347.09 366.24 337.22"/><path class="cls-2" d="M415.88,337.22h11.28l22.48,52.54H438.09l-4.59-10.83H409.64l-4.74,10.83H393.32Zm5.7,13.94-7.83,18h15.63Z"/><polygon class="cls-2" points="451.77 337.22 462.44 337.22 487.47 371.79 487.47 337.22 498.59 337.22 498.59 389.76 487.87 389.76 462.9 355.29 462.9 389.76 451.77 389.76 451.77 337.22"/><path class="cls-2" d="M523.25,337.22h11.29L557,389.76H545.46l-4.59-10.83H517l-4.75,10.83H500.71ZM529,351.16l-7.85,18h15.65Z"/><path class="cls-2" d="M593,344.37l-8.22,6.54c-2.92-3.62-5.86-5.43-8.85-5.43a5.7,5.7,0,0,0-3.58,1,3,3,0,0,0-1.4,2.37,3.78,3.78,0,0,0,1,2.5c.9,1.05,3.63,3.31,8.17,6.75q6.36,4.8,7.7,6a21.19,21.19,0,0,1,4.81,5.89,13.25,13.25,0,0,1,1.41,6.12,13.43,13.43,0,0,1-5,10.67c-3.3,2.81-7.63,4.21-13,4.21a20.83,20.83,0,0,1-10.89-2.74,22.33,22.33,0,0,1-7.92-8.65l9.32-5.08q4.23,7,9.73,7a7.69,7.69,0,0,0,4.81-1.51,4.29,4.29,0,0,0,1.95-3.46,5.68,5.68,0,0,0-1.47-3.57,41.26,41.26,0,0,0-6.48-5.46q-9.59-7-12.34-10.8a12.88,12.88,0,0,1-2.8-7.6,11.86,11.86,0,0,1,4.64-9.36,17.12,17.12,0,0,1,11.45-3.91,20,20,0,0,1,8.32,1.82,29.64,29.64,0,0,1,8.57,6.64"/><polygon class="cls-2" points="202.2 446.91 47.95 375.33 47.95 188.17 202.2 113.58 202.2 446.91"/><polygon class="cls-3" points="107.2 274.39 69.64 275.68 69.64 211.17 107.2 198.4 107.2 274.39"/><path class="cls-3" d="M174.38,272.09l-58,2v-78.8c57.13-19.48,58,76.8,58,76.8"/><path class="cls-3" d="M69.64,288.52l37.56,1v75.36c-36.85-12.15-37.56-76.36-37.56-76.36"/><polygon class="cls-3" points="174.38 386.88 116.34 367.87 116.34 289.76 174.38 291.3 174.38 386.88"/><polygon class="cls-4" points="218.48 6.88 614.91 174.7 614.91 211.01 218.48 87.28 218.48 6.88"/><polygon class="cls-2" points="0 196.6 202.2 82.21 202.2 0 0 160.3 0 196.6"/><g id="a"><path class="cls-5" d="M324.2,201.31a20.35,20.35,0,0,1-20.34,20.33H283.38v80.47a21.6,21.6,0,0,1-21.48-21.49v-59H241.41a20.35,20.35,0,0,1-20.34-20.33Z"/><path class="cls-5" d="M413.13,251.06v51.05H361.21a50.61,50.61,0,0,1-36.55-14.89,50.58,50.58,0,0,1,0-72.43,52,52,0,0,1,73.13,0q15.34,15,15.34,36.27M391.4,281.78V251.06a30.44,30.44,0,0,0-8.79-21.8,29.78,29.78,0,0,0-42.95,0,30.39,30.39,0,0,0-8.78,21.8,30,30,0,0,0,8.78,21.69,28.81,28.81,0,0,0,21.48,9Z"/><path class="cls-5" d="M442.77,321.37a20.63,20.63,0,0,1-15.15,6.34V251.06a49.07,49.07,0,0,1,15.29-36.27,52,52,0,0,1,73.11,0q15.35,15,15.35,36.27a48.63,48.63,0,0,1-15.28,36.16,50.72,50.72,0,0,1-36.67,14.89H449.11v4.1a20.63,20.63,0,0,1-6.34,15.16m36.65-39.59a28.71,28.71,0,0,0,21.44-9,30,30,0,0,0,8.76-21.69,30.45,30.45,0,0,0-8.76-21.8,29.67,29.67,0,0,0-42.86,0,30.37,30.37,0,0,0-8.76,21.8v30.72Z"/><g id="a_"><g class="cls-6"><path class="cls-5" d="M419.82,287a20.64,20.64,0,0,1,6.34,15.15H349.52a49.05,49.05,0,0,1-36.27-15.29,52,52,0,0,1,0-73.1q15-15.36,36.27-15.35a48.58,48.58,0,0,1,36.15,15.28,50.65,50.65,0,0,1,14.9,36.66v30.31h4.09A20.67,20.67,0,0,1,419.82,287m-39.59-36.65a28.73,28.73,0,0,0-9-21.44,30,30,0,0,0-21.68-8.76,30.42,30.42,0,0,0-21.8,8.76,29.65,29.65,0,0,0,0,42.86,30.33,30.33,0,0,0,21.8,8.76h30.71Z"/></g></g><g id="_3" data-name="3"><path class="cls-7" d="M558.39,207.73l-16.67-3.31q2.09-8.85,8-13.56t16.74-4.72q12.4,0,18,5.14a16.86,16.86,0,0,1,5.53,12.95,15.6,15.6,0,0,1-2.24,8.27,20.13,20.13,0,0,1-6.79,6.49,19.08,19.08,0,0,1,5.62,2.36,14.85,14.85,0,0,1,4.91,5.7,18.82,18.82,0,0,1,1.76,8.45,25.65,25.65,0,0,1-2.89,11.8,20.54,20.54,0,0,1-8.38,8.71c-3.61,2-8.41,3.06-14.32,3.06s-10.32-.76-13.66-2.26a20.64,20.64,0,0,1-8.24-6.63,31.66,31.66,0,0,1-4.94-10.92l17.62-2.6c.7,3.93,1.77,6.67,3.22,8.18a7.68,7.68,0,0,0,11.48-.58,11.78,11.78,0,0,0,2.35-7.7c0-3.28-.77-5.8-2.27-7.6a7.65,7.65,0,0,0-6.18-2.7,20.45,20.45,0,0,0-5.7,1.16l.9-14a15.37,15.37,0,0,0,2.31.24,7.59,7.59,0,0,0,5.77-2.45,8.13,8.13,0,0,0,2.3-5.82,7.37,7.37,0,0,0-1.71-5.15,6.09,6.09,0,0,0-4.76-1.92A6.66,6.66,0,0,0,561,200.4C559.73,201.79,558.86,204.24,558.39,207.73Z"/><path class="cls-4" d="M558.39,207.73l-16.67-3.31q2.09-8.85,8-13.56t16.74-4.72q12.4,0,18,5.14a16.86,16.86,0,0,1,5.53,12.95,15.6,15.6,0,0,1-2.24,8.27,20.13,20.13,0,0,1-6.79,6.49,19.08,19.08,0,0,1,5.62,2.36,14.85,14.85,0,0,1,4.91,5.7,18.82,18.82,0,0,1,1.76,8.45,25.65,25.65,0,0,1-2.89,11.8,20.54,20.54,0,0,1-8.38,8.71c-3.61,2-8.41,3.06-14.32,3.06s-10.32-.76-13.66-2.26a20.64,20.64,0,0,1-8.24-6.63,31.66,31.66,0,0,1-4.94-10.92l17.62-2.6c.7,3.93,1.77,6.67,3.22,8.18a7.68,7.68,0,0,0,11.48-.58,11.78,11.78,0,0,0,2.35-7.7c0-3.28-.77-5.8-2.27-7.6a7.65,7.65,0,0,0-6.18-2.7,20.45,20.45,0,0,0-5.7,1.16l.9-14a15.37,15.37,0,0,0,2.31.24,7.59,7.59,0,0,0,5.77-2.45,8.13,8.13,0,0,0,2.3-5.82,7.37,7.37,0,0,0-1.71-5.15,6.09,6.09,0,0,0-4.76-1.92A6.66,6.66,0,0,0,561,200.4c-1.29,1.39-2.16,3.84-2.63,7.33"/></g></g></g></g></svg>