<?xml version="1.0" standalone="no"?>
<!DOCTYPE svg PUBLIC "-//W3C//DTD SVG 20010904//EN"
 "http://www.w3.org/TR/2001/REC-SVG-20010904/DTD/svg10.dtd">
<svg version="1.0" xmlns="http://www.w3.org/2000/svg"
 width="648.000000pt" height="648.000000pt" viewBox="0 0 648.000000 648.000000"
 preserveAspectRatio="xMidYMid meet">
<metadata>
Created by potrace 1.14, written by Peter Selinger 2001-2017
</metadata>
<g transform="translate(0.000000,648.000000) scale(0.100000,-0.100000)"
fill="#000000" stroke="none">
<path d="M2978 6475 c-2 -1 -37 -6 -78 -9 -41 -4 -86 -9 -100 -11 -14 -2 -49
-6 -79 -10 -30 -3 -57 -7 -60 -9 -3 -2 -33 -7 -66 -11 -32 -3 -62 -8 -65 -10
-6 -4 -22 -7 -85 -20 -46 -9 -134 -32 -195 -50 -30 -9 -62 -18 -70 -20 -136
-36 -443 -168 -613 -264 -147 -83 -379 -246 -502 -352 -80 -70 -296 -287 -366
-369 -35 -41 -67 -76 -71 -78 -5 -2 -8 -10 -8 -17 0 -7 -4 -15 -8 -17 -4 -1
-23 -23 -42 -48 -19 -25 -38 -47 -41 -50 -29 -24 -170 -260 -228 -382 -23 -48
-46 -90 -51 -93 -6 -4 -8 -10 -5 -15 3 -5 1 -11 -5 -15 -18 -11 -102 -228
-115 -297 -3 -13 -7 -34 -10 -48 -12 -56 -18 -92 -32 -191 -7 -55 -7 -349 0
-409 9 -68 17 -118 33 -190 3 -14 7 -34 9 -46 3 -11 18 -62 35 -112 31 -95 35
-122 22 -137 -11 -14 -55 -150 -67 -210 -15 -68 -26 -129 -32 -170 -10 -65
-10 -365 0 -430 4 -27 10 -68 12 -90 12 -97 18 -123 40 -179 13 -32 21 -65 18
-73 -6 -15 14 -62 32 -75 5 -4 6 -8 2 -8 -10 0 88 -192 168 -330 83 -143 89
-152 98 -164 4 -6 34 -49 67 -96 32 -47 64 -91 71 -99 6 -7 28 -34 47 -59 19
-25 51 -64 71 -87 48 -54 289 -294 326 -325 136 -113 185 -150 194 -150 6 0
11 -4 11 -9 0 -7 43 -39 101 -76 9 -5 41 -26 70 -46 30 -19 70 -44 89 -55 19
-10 37 -22 40 -25 17 -22 345 -177 490 -233 138 -52 406 -129 490 -140 19 -2
42 -7 50 -10 15 -5 56 -12 135 -22 22 -3 51 -7 65 -10 79 -13 200 -19 395 -19
225 1 286 5 465 29 458 63 959 259 1354 529 39 27 89 61 111 75 21 15 55 42
75 59 19 18 38 33 41 33 3 0 17 10 31 23 14 12 49 42 78 67 98 83 288 280 361
375 13 17 26 32 29 35 24 21 220 311 220 325 0 3 15 27 33 53 18 26 39 61 47
77 8 17 17 32 20 35 11 11 105 211 147 314 40 97 95 255 109 308 2 10 6 26 9
35 28 106 46 183 51 208 2 16 7 37 9 45 2 8 7 33 10 55 3 23 8 52 10 65 3 14
7 48 10 75 3 28 8 68 11 90 8 56 9 527 1 600 -8 74 -16 134 -21 160 -2 11 -7
43 -10 70 -4 28 -13 82 -21 120 -8 39 -17 84 -20 102 -3 18 -9 42 -14 55 -5
13 -8 25 -8 28 0 3 -3 16 -7 30 -4 14 -12 43 -18 65 -6 22 -20 69 -31 105 -12
36 -22 67 -22 70 -1 3 -5 14 -9 25 -5 11 -26 67 -48 125 -58 152 -197 429
-220 438 -4 2 -8 8 -8 14 0 22 -131 210 -239 343 -196 242 -467 486 -731 660
-25 17 -47 32 -50 35 -36 37 -374 217 -520 276 -47 19 -94 39 -105 44 -57 27
-343 112 -425 126 -14 3 -41 9 -60 14 -38 10 -226 39 -300 46 -51 6 -527 14
-532 9z m-173 -464 c55 -34 109 -68 120 -74 11 -7 45 -29 77 -49 31 -21 59
-38 62 -38 2 0 39 -22 80 -50 42 -27 79 -50 83 -50 4 0 16 -8 27 -18 12 -10
75 -52 141 -92 66 -41 122 -77 125 -80 3 -4 12 -9 20 -12 13 -5 195 -118 240
-149 9 -6 37 -24 63 -40 61 -38 60 -57 -5 -96 -171 -101 -421 -243 -429 -243
-5 0 -9 -4 -9 -9 0 -5 -8 -11 -17 -14 -10 -3 -43 -20 -73 -37 -134 -78 -490
-285 -541 -316 -76 -46 -106 -56 -116 -41 -4 7 -8 82 -8 167 -1 85 -5 165 -9
178 -10 29 -10 29 -175 -4 -22 -4 -160 -38 -201 -49 -8 -2 -15 -4 -15 -5 0 -1
-11 -3 -25 -6 -24 -4 -108 -29 -140 -41 -8 -3 -19 -7 -25 -9 -139 -34 -603
-249 -727 -335 -14 -11 -28 -19 -31 -19 -7 0 -188 -123 -243 -165 -173 -132
-396 -346 -509 -488 -33 -42 -65 -78 -72 -81 -8 -3 -26 24 -49 72 -52 109 -54
114 -59 140 -2 12 -7 27 -10 32 -11 17 -44 145 -50 190 -3 23 -7 45 -9 49 -4
5 -17 182 -18 231 -2 79 3 98 38 136 62 68 135 144 138 144 1 0 27 24 58 53
66 63 165 149 185 161 9 4 23 16 33 25 9 9 30 25 45 36 16 11 33 25 39 31 6 5
30 21 54 34 23 13 42 27 42 31 0 3 14 12 30 19 17 7 30 16 30 21 0 5 4 9 9 9
5 0 40 19 77 42 38 23 107 61 154 86 47 24 90 47 95 51 6 4 55 27 110 50 55
24 114 49 130 56 50 22 218 83 250 91 17 4 35 9 40 13 9 5 114 36 160 46 11 3
34 8 50 12 17 4 32 7 35 8 3 1 14 4 25 7 11 4 36 9 55 12 19 3 71 13 115 21
44 9 103 18 130 20 28 3 61 7 75 10 13 2 42 7 65 10 56 8 84 24 92 54 4 14 7
96 7 181 -1 162 4 180 41 157 11 -7 65 -41 120 -76z m670 -1894 c29 -6 128
-18 170 -22 11 -1 40 -5 65 -9 25 -4 54 -9 65 -11 69 -10 253 -53 390 -90 77
-21 237 -75 300 -101 127 -52 170 -71 240 -106 144 -73 385 -219 431 -262 7
-6 24 -20 39 -31 83 -60 189 -151 229 -197 l47 -53 -80 -75 c-107 -100 -116
-108 -245 -204 -136 -101 -202 -143 -391 -246 -94 -51 -405 -177 -405 -164 0
4 -6 2 -13 -4 -7 -6 -25 -13 -40 -16 -15 -2 -30 -7 -34 -9 -10 -6 -227 -64
-266 -71 -16 -3 -43 -9 -60 -15 -18 -5 -54 -13 -82 -17 -27 -4 -52 -8 -55 -9
-3 0 -27 -4 -53 -9 -27 -4 -56 -9 -65 -11 -10 -1 -44 -6 -77 -10 -33 -4 -73
-9 -90 -11 -140 -17 -478 -23 -625 -11 -41 4 -102 9 -135 12 -33 3 -71 7 -85
10 -14 2 -43 7 -65 10 -23 3 -52 8 -65 10 -14 3 -40 8 -59 11 -51 9 -63 11
-106 23 -22 5 -53 13 -70 16 -33 5 -91 22 -200 55 -38 11 -77 23 -85 25 -124
34 -569 228 -591 258 -3 5 -9 8 -13 8 -12 -2 -262 162 -307 201 -15 13 -44 37
-65 53 -57 45 -184 167 -195 187 -7 14 1 26 40 63 81 76 138 123 246 205 44
33 85 63 90 68 11 8 111 72 136 87 155 90 299 165 318 165 6 0 11 5 11 10 0 6
7 10 16 10 8 0 35 9 59 20 98 45 380 137 473 155 13 2 32 7 42 10 10 3 27 8
37 10 157 33 217 44 221 40 2 -2 12 0 21 4 9 5 47 12 86 16 38 4 72 8 75 10 3
2 48 6 100 10 52 4 97 9 99 11 6 5 541 -3 576 -9z m-2905 -1497 c116 -135 295
-306 430 -410 25 -19 47 -37 50 -40 3 -3 21 -16 40 -30 172 -121 308 -203 495
-299 77 -40 142 -73 145 -73 6 0 10 -2 140 -55 52 -21 142 -54 200 -72 58 -19
112 -36 120 -39 8 -3 20 -6 25 -7 6 -2 47 -12 93 -24 116 -30 269 -61 302 -61
15 0 30 6 33 14 3 8 6 91 6 186 0 95 3 175 5 178 5 4 46 -15 116 -55 19 -12
107 -62 195 -113 88 -51 179 -103 202 -116 23 -13 92 -53 153 -89 61 -36 115
-65 121 -65 5 0 9 -4 9 -10 0 -5 4 -10 10 -10 5 0 47 -22 94 -50 47 -27 89
-50 95 -50 6 0 11 -4 11 -9 0 -5 8 -11 18 -15 9 -3 31 -14 47 -23 17 -10 61
-36 98 -57 38 -21 71 -45 74 -53 6 -14 -11 -30 -73 -68 -99 -61 -250 -155
-513 -320 -161 -102 -297 -185 -301 -185 -5 0 -10 -4 -12 -8 -1 -4 -50 -37
-108 -72 -58 -35 -107 -67 -110 -70 -3 -4 -31 -21 -62 -38 -42 -24 -58 -29
-64 -20 -4 7 -8 85 -9 173 -1 88 -5 170 -9 182 -7 23 -33 32 -108 38 -47 4
-106 12 -153 20 -105 18 -138 24 -170 30 -14 3 -37 7 -52 10 -16 3 -46 11 -68
17 -22 6 -49 12 -60 14 -27 3 -244 69 -328 100 -118 42 -265 104 -371 157 -55
28 -103 51 -106 52 -3 0 -37 19 -76 42 -39 23 -83 47 -97 54 -15 7 -27 16 -27
21 0 4 -5 8 -10 8 -16 0 -248 158 -325 221 -137 113 -232 204 -369 354 -38 42
-38 41 -38 125 2 228 55 464 149 659 l36 75 26 -30 c14 -17 51 -59 81 -94z"/>
</g>
</svg>
